<svg xmlns="http://www.w3.org/2000/svg" width="137.188" height="44" viewBox="0 0 137.188 44">
  <g id="Group_1" data-name="Group 1" transform="translate(-463 -357)">
    <circle id="Ellipse_1" data-name="Ellipse 1" cx="22" cy="22" r="22" transform="translate(463 357)" fill="rgba(255,255,255,0.3)"/>
    <path id="logo-icon" d="M21.5.428H3.551A3.234,3.234,0,0,0,.36,3.693V21.678a3.187,3.187,0,0,0,3.19,3.209H21.5a3.176,3.176,0,0,0,3.136-3.209V3.638A3.176,3.176,0,0,0,21.5.428ZM12.527,14.761A8.617,8.617,0,0,1,4.037,6.737,1.733,1.733,0,0,1,5.605,4.855a1.752,1.752,0,0,1,1.838,1.6,5.036,5.036,0,0,0,10.057,0A1.726,1.726,0,0,1,19.34,4.8a2.058,2.058,0,0,1,1.244.609,1.821,1.821,0,0,1,.433,1.273A8.624,8.624,0,0,1,12.527,14.761Z" transform="translate(472.64 366.572)" fill="#fff"/>
    <path id="logo-text" d="M4.363,23.24H16.492V26H.971V.406H4.363Zm34.506-9.211A15.893,15.893,0,0,1,37.6,20.6a9.593,9.593,0,0,1-3.586,4.271A9.866,9.866,0,0,1,28.6,26.352a9.825,9.825,0,0,1-5.361-1.477A9.941,9.941,0,0,1,19.6,20.639a15.343,15.343,0,0,1-1.318-6.381V12.412a15.644,15.644,0,0,1,1.283-6.521,9.5,9.5,0,0,1,9-5.836,9.834,9.834,0,0,1,5.414,1.494A9.488,9.488,0,0,1,37.6,5.855a15.847,15.847,0,0,1,1.266,6.557Zm-3.357-1.652q0-4.553-1.828-6.979a6.022,6.022,0,0,0-5.115-2.443A5.981,5.981,0,0,0,23.523,5.4a11.239,11.239,0,0,0-1.881,6.75v1.881a11.573,11.573,0,0,0,1.846,6.943A6.02,6.02,0,0,0,28.6,23.486a5.974,5.974,0,0,0,5.062-2.373q1.793-2.391,1.846-6.838ZM62.828,22.643a7.846,7.846,0,0,1-3.639,2.795,14.718,14.718,0,0,1-5.414.914,10.566,10.566,0,0,1-5.555-1.459,9.892,9.892,0,0,1-3.762-4.184,14.5,14.5,0,0,1-1.354-6.275V12.2q0-5.783,2.689-8.965A9.428,9.428,0,0,1,53.389.055,9.684,9.684,0,0,1,59.84,2.111a8.885,8.885,0,0,1,2.988,5.8H59.453q-.949-5.08-6.047-5.08a5.991,5.991,0,0,0-5.15,2.391Q46.516,7.6,46.5,12.113v2.092a10.931,10.931,0,0,0,1.969,6.855,6.392,6.392,0,0,0,5.326,2.531,11.737,11.737,0,0,0,3.322-.422,5.134,5.134,0,0,0,2.355-1.424V16H53.547V13.256h9.281Zm25.33-8.613A15.9,15.9,0,0,1,86.893,20.6a9.594,9.594,0,0,1-3.586,4.271,9.9,9.9,0,0,1-14.414-4.236,15.345,15.345,0,0,1-1.318-6.381V12.412a15.645,15.645,0,0,1,1.283-6.521,9.5,9.5,0,0,1,9-5.836,9.834,9.834,0,0,1,5.414,1.494,9.489,9.489,0,0,1,3.621,4.307,15.848,15.848,0,0,1,1.266,6.557ZM84.8,12.377q0-4.553-1.828-6.979a6.5,6.5,0,0,0-10.16,0,11.24,11.24,0,0,0-1.881,6.75v1.881a11.574,11.574,0,0,0,1.846,6.943,6.523,6.523,0,0,0,10.178.141q1.793-2.391,1.846-6.838Z" transform="translate(512.029 365.945)" fill="#fff"/>
  </g>
</svg>
